<?xml version="1.0" encoding="UTF-8" standalone="no"?>
<!DOCTYPE svg PUBLIC "-//W3C//DTD SVG 1.1//EN" "http://www.w3.org/Graphics/SVG/1.1/DTD/svg11.dtd">
<svg xmlns="http://www.w3.org/2000/svg" version="1.1" viewBox="0.00 0.00 252.00 95.00">
<circle fill="#dddddd" cx="86.98" cy="27.55" r="4.69"/>
<rect fill="#dddddd" x="-3.97" y="-19.76" transform="translate(216.47,47.40) rotate(0.1)" width="7.94" height="39.52" rx="0.54"/>
<path fill="#dddddd" d="
  M 44.67 47.12
  C 55.25 52.07 51.64 66.11 40.55 66.86
  Q 34.02 67.31 21.85 66.88
  Q 21.25 66.86 21.25 66.26
  L 21.25 28.51
  Q 21.25 27.94 21.82 27.90
  C 27.67 27.52 40.64 26.62 45.57 29.73
  C 49.68 32.32 51.19 37.90 49.06 42.22
  C 48.18 44.02 46.30 45.19 44.61 46.40
  Q 44.03 46.82 44.67 47.12
  Z
  M 29.06 34.92
  L 29.04 43.12
  A 0.78 0.78 0.0 0 0 29.82 43.90
  L 36.72 43.91
  A 5.04 4.04 0.1 0 0 41.77 39.88
  L 41.77 38.20
  A 5.04 4.04 0.1 0 0 36.74 34.15
  L 29.84 34.14
  A 0.78 0.78 0.0 0 0 29.06 34.92
  Z
  M 29.04 50.84
  L 29.06 59.92
  A 0.82 0.82 0.0 0 0 29.88 60.74
  L 37.15 60.73
  A 5.87 5.14 -0.1 0 0 43.01 55.58
  L 43.01 55.14
  A 5.87 5.14 -0.1 0 0 37.13 50.01
  L 29.86 50.02
  A 0.82 0.82 0.0 0 0 29.04 50.84
  Z"
/>
<path fill="#dddddd" d="
  M 168.69 66.18
  L 182.26 28.13
  A 0.57 0.57 0.0 0 1 182.79 27.75
  L 191.30 27.75
  A 0.57 0.57 0.0 0 1 191.83 28.13
  L 205.49 66.54
  A 0.57 0.57 0.0 0 1 204.93 67.30
  L 197.78 66.94
  A 0.57 0.57 0.0 0 1 197.27 66.56
  L 194.86 59.88
  A 0.57 0.57 0.0 0 0 194.32 59.50
  L 179.57 59.50
  A 0.57 0.57 0.0 0 0 179.03 59.89
  L 176.72 66.91
  A 0.57 0.57 0.0 0 1 176.15 67.30
  L 169.19 66.94
  A 0.57 0.57 0.0 0 1 168.69 66.18
  Z
  M 181.46 52.84
  A 0.32 0.32 0.0 0 0 181.76 53.26
  L 192.24 53.24
  A 0.32 0.32 0.0 0 0 192.54 52.82
  L 187.27 37.71
  A 0.32 0.32 0.0 0 0 186.67 37.71
  L 181.46 52.84
  Z"
/>
<path fill="#dddddd" d="
  M 66.82 39.46
  A 0.47 0.46 60.6 0 0 67.66 39.70
  Q 70.47 35.72 75.41 35.31
  A 0.77 0.76 -2.4 0 1 76.24 36.07
  L 76.25 41.77
  Q 76.26 43.21 74.82 43.32
  Q 67.24 43.94 67.03 49.82
  Q 66.73 58.23 66.52 66.64
  Q 66.51 67.16 66.00 67.14
  L 59.43 66.89
  Q 58.75 66.87 58.75 66.19
  L 58.75 36.49
  Q 58.75 35.79 59.45 35.78
  L 65.90 35.73
  Q 66.56 35.73 66.60 36.39
  L 66.82 39.46
  Z"
/>
<path fill="#dddddd" d="
  M 109.28 38.82
  C 114.67 32.45 125.38 35.34 128.38 41.91
  C 131.04 47.74 129.74 59.75 129.82 66.69
  Q 129.83 67.30 129.22 67.27
  L 122.55 66.92
  Q 121.97 66.89 121.97 66.31
  Q 122.09 52.31 121.92 48.58
  C 121.51 39.73 108.11 39.20 108.26 50.24
  Q 108.36 58.05 108.05 66.77
  A 0.51 0.50 -87.2 0 1 107.52 67.26
  L 100.83 66.93
  Q 100.25 66.90 100.25 66.32
  L 100.25 36.50
  Q 100.25 35.75 101.00 35.75
  L 107.21 35.75
  Q 107.75 35.75 107.89 36.28
  L 108.49 38.64
  Q 108.71 39.49 109.28 38.82
  Z"
/>
<rect fill="#dddddd" x="-3.95" y="-15.71" transform="translate(86.80,51.45) rotate(-0.2)" width="7.90" height="31.42" rx="0.85"/>
<path fill="#dddddd" d="
  M 150.95 45.08
  L 156.28 35.92
  A 0.34 0.34 0.0 0 1 156.58 35.75
  L 164.22 35.75
  A 0.34 0.34 0.0 0 1 164.51 36.28
  L 154.75 51.18
  A 0.34 0.34 0.0 0 0 154.75 51.56
  L 164.55 66.51
  A 0.34 0.34 0.0 0 1 164.27 67.04
  L 156.27 67.16
  A 0.34 0.34 0.0 0 1 155.98 67.00
  L 150.07 57.86
  A 0.34 0.34 0.0 0 0 149.49 57.87
  L 144.05 66.95
  A 0.34 0.34 0.0 0 1 143.76 67.12
  L 136.24 67.06
  A 0.34 0.34 0.0 0 1 135.96 66.53
  L 145.63 51.57
  A 0.34 0.34 0.0 0 0 145.63 51.19
  L 135.84 36.28
  A 0.34 0.34 0.0 0 1 136.12 35.75
  L 144.21 35.75
  A 0.34 0.34 0.0 0 1 144.50 35.91
  L 150.37 45.09
  A 0.34 0.34 0.0 0 0 150.95 45.08
  Z"
/>
<circle fill="#ef9015" cx="233.09" cy="62.83" r="4.70"/>
</svg>
